<svg xmlns="http://www.w3.org/2000/svg" viewBox="0 0 512 512" role="img" aria-label="Chat">
  <defs>
    <linearGradient id="bg" x1="64" y1="40" x2="448" y2="472" gradientUnits="userSpaceOnUse">
      <stop stop-color="#102a46"/>
      <stop offset="1" stop-color="#07111f"/>
    </linearGradient>
    <linearGradient id="accent" x1="118" y1="151" x2="375" y2="374" gradientUnits="userSpaceOnUse">
      <stop stop-color="#67e8f9"/>
      <stop offset="1" stop-color="#22d3ee"/>
    </linearGradient>
  </defs>
  <rect width="512" height="512" rx="124" fill="url(#bg)"/>
  <rect x="22" y="22" width="468" height="468" rx="104" fill="none" stroke="#1d3c58" stroke-width="12"/>
  <path d="M265 112h80c42 0 76 34 76 76v72c0 32-20 60-49 71v44c0 17-20 26-33 15l-60-52h-14c-42 0-76-34-76-76v-74c0-42 34-76 76-76Z" fill="#164e63" stroke="#2a8296" stroke-width="8"/>
  <path d="M167 151h143c43 0 78 35 78 78v75c0 43-35 78-78 78h-61l-69 60c-14 12-36 2-36-17v-47c-34-10-59-41-59-78v-71c0-43 35-78 78-78h4Z" fill="url(#accent)"/>
  <circle cx="178" cy="268" r="17" fill="#06202a"/>
  <circle cx="237" cy="268" r="17" fill="#06202a"/>
  <circle cx="296" cy="268" r="17" fill="#06202a"/>
</svg>
