<svg xmlns="http://www.w3.org/2000/svg" width="1200" height="630" viewBox="0 0 1200 630" role="img" aria-label="Chat SaaS platform control center">
  <defs>
    <linearGradient id="background" x1="80" y1="20" x2="1120" y2="610" gradientUnits="userSpaceOnUse">
      <stop stop-color="#102a46"/>
      <stop offset="0.55" stop-color="#071525"/>
      <stop offset="1" stop-color="#050c16"/>
    </linearGradient>
    <linearGradient id="accent" x1="90" y1="80" x2="330" y2="330" gradientUnits="userSpaceOnUse">
      <stop stop-color="#67e8f9"/>
      <stop offset="1" stop-color="#22d3ee"/>
    </linearGradient>
    <radialGradient id="glow" cx="0" cy="0" r="1" gradientTransform="translate(1010 90) rotate(133) scale(520 500)" gradientUnits="userSpaceOnUse">
      <stop stop-color="#155e75" stop-opacity=".52"/>
      <stop offset="1" stop-color="#071525" stop-opacity="0"/>
    </radialGradient>
    <filter id="shadow" x="40" y="45" width="330" height="330" filterUnits="userSpaceOnUse">
      <feDropShadow dx="0" dy="24" stdDeviation="24" flood-color="#020617" flood-opacity=".5"/>
    </filter>
  </defs>
  <rect width="1200" height="630" rx="36" fill="url(#background)"/>
  <rect width="1200" height="630" rx="36" fill="url(#glow)"/>
  <path d="M0 524C257 424 411 610 672 504s331-47 528-161v287H0V524Z" fill="#0b2034" opacity=".55"/>
  <g opacity=".25" stroke="#67e8f9">
    <path d="M870 112h205M912 158h205M848 204h205"/>
    <circle cx="835" cy="112" r="5" fill="#67e8f9"/>
    <circle cx="877" cy="158" r="5" fill="#67e8f9"/>
    <circle cx="813" cy="204" r="5" fill="#67e8f9"/>
  </g>
  <g filter="url(#shadow)">
    <rect x="72" y="82" width="252" height="252" rx="64" fill="#0a1929" stroke="#23435e" stroke-width="4"/>
    <path d="M130 139c0-14 12-26 26-26h84c15 0 26 12 26 26v74c0 15-11 26-26 26h-40l-41 37c-9 8-23 2-23-10v-27h-6c-14 0-26-11-26-26v-74Z" fill="url(#accent)"/>
    <path d="M154 161h88M154 190h59" stroke="#06202a" stroke-width="15" stroke-linecap="round"/>
    <path d="M235 235v48M211 259h48" stroke="#a5f3fc" stroke-width="18" stroke-linecap="round"/>
  </g>
  <text x="392" y="151" fill="#67e8f9" font-family="Inter, -apple-system, BlinkMacSystemFont, 'Segoe UI', sans-serif" font-size="23" font-weight="700" letter-spacing="4">CHAT SAAS</text>
  <text x="392" y="224" fill="#f1f5f9" font-family="Inter, -apple-system, BlinkMacSystemFont, 'Segoe UI', sans-serif" font-size="58" font-weight="750">Platform control center</text>
  <text x="392" y="282" fill="#9fb2c9" font-family="Inter, -apple-system, BlinkMacSystemFont, 'Segoe UI', sans-serif" font-size="26">Secure tenant, user, billing and system operations.</text>
  <g transform="translate(392 357)">
    <rect width="174" height="50" rx="25" fill="#102d42" stroke="#1e5368"/>
    <circle cx="27" cy="25" r="6" fill="#22d3ee"/>
    <text x="45" y="33" fill="#cffafe" font-family="Inter, -apple-system, BlinkMacSystemFont, 'Segoe UI', sans-serif" font-size="20" font-weight="650">Tenants</text>
    <rect x="192" width="158" height="50" rx="25" fill="#102d42" stroke="#1e5368"/>
    <circle cx="219" cy="25" r="6" fill="#22d3ee"/>
    <text x="237" y="33" fill="#cffafe" font-family="Inter, -apple-system, BlinkMacSystemFont, 'Segoe UI', sans-serif" font-size="20" font-weight="650">Users</text>
    <rect x="368" width="174" height="50" rx="25" fill="#102d42" stroke="#1e5368"/>
    <circle cx="395" cy="25" r="6" fill="#22d3ee"/>
    <text x="413" y="33" fill="#cffafe" font-family="Inter, -apple-system, BlinkMacSystemFont, 'Segoe UI', sans-serif" font-size="20" font-weight="650">Usage</text>
    <rect x="560" width="186" height="50" rx="25" fill="#102d42" stroke="#1e5368"/>
    <circle cx="587" cy="25" r="6" fill="#22d3ee"/>
    <text x="605" y="33" fill="#cffafe" font-family="Inter, -apple-system, BlinkMacSystemFont, 'Segoe UI', sans-serif" font-size="20" font-weight="650">System</text>
  </g>
  <text x="76" y="558" fill="#71869e" font-family="Inter, -apple-system, BlinkMacSystemFont, 'Segoe UI', sans-serif" font-size="21">admin.c.plhh.org</text>
  <path d="M76 520h1048" stroke="#1d3c58"/>
</svg>
